<?xml version="1.0" encoding="utf-8"?>
<!-- Generator: Adobe Illustrator 27.0.0, SVG Export Plug-In . SVG Version: 6.00 Build 0)  -->
<svg version="1.1" id="Solit"
    xmlns="http://www.w3.org/2000/svg"
    xmlns:xlink="http://www.w3.org/1999/xlink" x="0px" y="0px" viewBox="0 0 81.6 83.1" style="enable-background:new 0 0 81.6 83.1;" xml:space="preserve">
    <style type="text/css">
	.st0{display:none;fill:#FFFFFF;}
	.st1{fill-rule:evenodd;clip-rule:evenodd;fill:#FFFFFF;stroke:#FFFFFF;stroke-miterlimit:10;}
    </style>
    <rect x="-131.6" y="-248.3" class="st0" width="840.9" height="593.4"/>
    <g>
        <path class="st1" d="M58.8,78.4c-21.3,1.2-38.1-12.6-40.6-32.9C16.8,34,20.5,24,28.5,15.7c7.9-8.2,17.9-11.5,30-11.4
		C44.8-2.6,23-0.7,10,15.2C-2.7,30.7-2.5,53,10.5,68.3C22.1,82,44,86.8,58.8,78.4z"/>
        <path class="st1" d="M73.1,19.2c-10.6-10-29-8.6-39.2,2.7c-11.2,12.3-10,30.9,2.8,41.9c10.4,9,28.6,9,36.1,0
		c-10.4,2.2-19.1-0.6-25.2-9.3c-5.4-7.6-5.9-15.9-1.2-24C52,20.2,61.3,16.9,73.1,19.2z"/>
        <path class="st1" d="M66.4,56.1c8.4,0,14.7-6.4,14.7-14.7c0-8.5-6.5-14.7-15.2-14.6c-8,0-14.2,6.5-14.2,14.7
		C51.6,49.8,58,56.2,66.4,56.1z"/>
        <path class="st1" d="M58.8,78.4c-14.9,8.4-36.7,3.7-48.4-10c-13-15.2-13.2-37.5-0.5-53.1c13-16,34.8-17.9,48.5-10.9
		c-12.1-0.1-22.1,3.2-30,11.4c-8,8.3-11.7,18.3-10.3,29.8C20.8,65.8,37.5,79.5,58.8,78.4z"/>
        <path class="st1" d="M73.1,19.2c-11.8-2.3-21,1-26.9,11.3c-4.6,8.1-4.1,16.4,1.2,24c6.1,8.7,14.8,11.5,25.2,9.3
		c-7.5,9-25.7,8.9-36.1,0c-12.7-11-14-29.6-2.8-41.9C44.1,10.6,62.5,9.2,73.1,19.2z"/>
        <path class="st1" d="M66.4,56.1c-8.3,0-14.7-6.3-14.7-14.6c0-8.2,6.2-14.6,14.2-14.7c8.7-0.1,15.2,6.2,15.2,14.6
		C81.1,49.7,74.7,56.1,66.4,56.1z"/>
    </g>
</svg>
