<?xml version="1.0" encoding="utf-8"?>
<!-- Generator: Adobe Illustrator 27.0.0, SVG Export Plug-In . SVG Version: 6.00 Build 0)  -->
<svg version="1.1" id="Solit"
    xmlns="http://www.w3.org/2000/svg"
    xmlns:xlink="http://www.w3.org/1999/xlink" x="0px" y="0px" viewBox="0 0 585.9 109.9" style="enable-background:new 0 0 585.9 109.9;" xml:space="preserve">
    <style type="text/css">
	.st0{display:none;fill:#FFFFFF;}
	.st1{fill:#FFFFFF;stroke:#FFFFFF;stroke-miterlimit:10;}
	.st2{fill-rule:evenodd;clip-rule:evenodd;fill:#FFFFFF;stroke:#FFFFFF;stroke-miterlimit:10;}
    </style>
    <rect x="-131.6" y="-248.3" class="st0" width="840.9" height="593.4"/>
    <g>
        <g>
            <path class="st1" d="M292.1,108.1c0.7,0,1.4-0.1,2-0.2s1.1-0.3,1.6-0.5s0.9-0.4,1.2-0.6c0.3-0.2,0.6-0.4,0.8-0.6
			c0.2-0.2,0.4-0.3,0.6-0.4c0.1-0.1,0.3-0.2,0.3-0.2c0.1,0,0.2,0,0.2,0.1l0.5,0.6c-0.9,0.9-2,1.6-3.2,2.2c-1.2,0.5-2.6,0.8-4.3,0.8
			c-1.2,0-2.4-0.2-3.4-0.6s-1.9-1-2.6-1.8s-1.3-1.7-1.6-2.8c-0.4-1.1-0.6-2.3-0.6-3.6c0-1.8,0.3-3.4,0.9-4.9s1.4-2.8,2.4-3.8
			c1-1.1,2.2-1.9,3.5-2.5c1.4-0.6,2.8-0.9,4.4-0.9c0.7,0,1.4,0.1,2,0.2s1.1,0.3,1.6,0.5s0.9,0.5,1.4,0.8c0.4,0.3,0.8,0.7,1.2,1.1
			l-0.5,0.6c-0.1,0.1-0.2,0.2-0.4,0.2c-0.1,0-0.2-0.1-0.3-0.2c-0.1-0.1-0.3-0.2-0.4-0.4c-0.2-0.2-0.4-0.3-0.7-0.5
			c-0.3-0.2-0.6-0.3-0.9-0.5c-0.4-0.1-0.8-0.3-1.3-0.4s-1.1-0.1-1.7-0.1c-1.3,0-2.6,0.3-3.8,0.8c-1.2,0.5-2.2,1.2-3,2.1
			c-0.9,0.9-1.5,2.1-2,3.4s-0.7,2.8-0.7,4.5c0,1.2,0.2,2.3,0.5,3.2c0.3,1,0.8,1.8,1.4,2.5s1.3,1.2,2.2,1.5
			C290.1,107.9,291.1,108.1,292.1,108.1z"/>
            <path class="st1" d="M337.1,97.3c0,1.8-0.3,3.5-0.8,4.9c-0.6,1.5-1.3,2.7-2.3,3.8c-1,1.1-2.2,1.9-3.5,2.5s-2.8,0.9-4.4,0.9
			c-1.3,0-2.4-0.2-3.4-0.6s-1.9-1-2.6-1.8s-1.3-1.7-1.7-2.8c-0.4-1.1-0.6-2.3-0.6-3.6c0-1.8,0.3-3.4,0.8-4.9s1.3-2.8,2.3-3.8
			c1-1.1,2.1-1.9,3.5-2.5c1.3-0.6,2.8-0.9,4.3-0.9c1.3,0,2.4,0.2,3.4,0.6s1.9,1,2.6,1.8s1.3,1.7,1.7,2.8
			C336.9,94.7,337.1,96,337.1,97.3z M335.5,97.3c0-1.2-0.2-2.3-0.5-3.2c-0.3-1-0.8-1.8-1.4-2.4c-0.6-0.7-1.3-1.2-2.2-1.6
			c-0.9-0.4-1.8-0.5-2.8-0.5c-1.3,0-2.6,0.3-3.7,0.8s-2.1,1.2-2.9,2.2c-0.8,0.9-1.5,2.1-1.9,3.4c-0.5,1.3-0.7,2.8-0.7,4.5
			c0,1.2,0.2,2.3,0.5,3.2c0.3,1,0.8,1.8,1.4,2.4c0.6,0.7,1.3,1.2,2.2,1.5c0.8,0.4,1.8,0.5,2.8,0.5c1.3,0,2.6-0.3,3.7-0.8
			s2.1-1.2,2.9-2.2c0.8-0.9,1.5-2.1,1.9-3.4C335.3,100.5,335.5,99,335.5,97.3z"/>
            <path class="st1" d="M373.7,88.6l-2.7,20.5h-0.7c-0.1,0-0.2,0-0.3-0.1c-0.1,0-0.2-0.1-0.2-0.2l-10.5-17.9c0,0.1,0,0.2,0,0.3
			c0,0.1,0,0.2,0,0.3l-2.3,17.6h-1.3l2.7-20.5h0.7c0.1,0,0.2,0,0.3,0c0.1,0,0.1,0.1,0.2,0.2l10.5,17.9c0-0.1,0-0.3,0-0.4
			s0-0.2,0-0.3l2.3-17.4H373.7z"/>
            <path class="st1" d="M410.4,88.6l-2.7,20.5H407c-0.1,0-0.2,0-0.3-0.1c-0.1,0-0.2-0.1-0.2-0.2L396,90.9c0,0.1,0,0.2,0,0.3
			c0,0.1,0,0.2,0,0.3l-2.3,17.6h-1.3l2.7-20.5h0.7c0.1,0,0.2,0,0.3,0s0.1,0.1,0.2,0.2l10.5,17.9c0-0.1,0-0.3,0-0.4s0-0.2,0-0.3
			l2.3-17.4H410.4z"/>
            <path class="st1" d="M433.1,89.8l-1.1,8.4h8.7l-0.2,1.2h-8.6l-1.1,8.6h10.5l-0.2,1.2h-12l2.7-20.5h11.9l-0.2,1.2L433.1,89.8
			L433.1,89.8z"/>
            <path class="st1" d="M468.7,108.1c0.7,0,1.4-0.1,2-0.2s1.1-0.3,1.6-0.5s0.9-0.4,1.2-0.6s0.6-0.4,0.8-0.6s0.4-0.3,0.6-0.4
			c0.1-0.1,0.3-0.2,0.3-0.2c0.1,0,0.2,0,0.2,0.1l0.6,0.6c-0.9,0.9-2,1.6-3.2,2.2c-1.2,0.5-2.6,0.8-4.3,0.8c-1.2,0-2.4-0.2-3.4-0.6
			s-1.9-1-2.6-1.8c-0.7-0.8-1.3-1.7-1.6-2.8c-0.4-1.1-0.6-2.3-0.6-3.6c0-1.8,0.3-3.4,0.9-4.9c0.6-1.5,1.4-2.8,2.4-3.8
			c1-1.1,2.2-1.9,3.5-2.5c1.4-0.6,2.8-0.9,4.4-0.9c0.7,0,1.4,0.1,2,0.2s1.1,0.3,1.6,0.5s0.9,0.5,1.4,0.8c0.4,0.3,0.8,0.7,1.2,1.1
			l-0.5,0.6c-0.1,0.1-0.2,0.2-0.4,0.2c-0.1,0-0.2-0.1-0.3-0.2s-0.3-0.2-0.4-0.4c-0.2-0.2-0.4-0.3-0.7-0.5s-0.6-0.3-0.9-0.5
			c-0.4-0.1-0.8-0.3-1.3-0.4s-1.1-0.1-1.7-0.1c-1.3,0-2.6,0.3-3.8,0.8s-2.2,1.2-3,2.1c-0.9,0.9-1.5,2.1-2,3.4s-0.7,2.8-0.7,4.5
			c0,1.2,0.2,2.3,0.5,3.2c0.3,1,0.8,1.8,1.4,2.5c0.6,0.7,1.3,1.2,2.2,1.5C466.7,107.9,467.6,108.1,468.7,108.1z"/>
            <path class="st1" d="M510.2,89.8h-6.9l-2.5,19.3h-1.5l2.5-19.3h-7l0.2-1.2h15.5L510.2,89.8z"/>
        </g>
    </g>
    <g>
        <path class="st1" d="M98.2,82.1c-4.2,0-6.7-2-7.5-5.9c-0.7-3.3,0-7.3,2.1-12l3.5-7.9h22.1c-0.9,2-1.2,3.4-0.9,4.4
		c0.1,0.5,0.1,0.7,0,0.7H176c-0.1,0,0.1-0.2,0.6-0.7c1.2-1.1,2.2-2.5,2.9-4.1c0.7-1.6,1-3,0.8-4.1c-0.1-0.5-0.1-0.7,0-0.7h-68.6
		c-4.2,0-6.7-2-7.5-5.9c-0.7-3.3,0-7.3,2.1-12l6.7-15.1c2.1-4.6,4.9-8.6,8.6-12c4.3-4,8.6-5.9,12.8-5.9h78.7c4.2,0,6.7,2,7.5,5.9
		c0.7,3.4,0,7.3-2.1,12l-3.6,8h-22.1c0.9-2,1.2-3.4,0.9-4.4c-0.1-0.5-0.1-0.7,0-0.7h-58.5c0.1,0-0.1,0.2-0.6,0.7
		c-1.2,1.1-2.1,2.5-2.9,4.1c-0.7,1.6-1,3-0.8,4.1c0.1,0.5,0.1,0.7,0,0.7h68.6c4.2,0,6.7,2,7.5,5.9c0.7,3.3,0,7.3-2.1,12l-6.7,15.1
		c-2.1,4.7-4.9,8.6-8.6,12c-4.3,3.9-8.6,5.9-12.8,5.9L98.2,82.1L98.2,82.1z"/>
        <path class="st1" d="M215.7,82.1c-3.8,0-6.1-1.9-6.8-5.6c-0.7-3.4,0-7.5,2.1-12.3l20.2-45.4c2.1-4.8,5.1-8.9,8.8-12.3
		c4.1-3.8,8.1-5.6,11.8-5.6h78.7c3.8,0,6.1,1.9,6.8,5.6c0.7,3.4,0,7.5-2.1,12.3L315,64.2c-2.1,4.8-5,8.9-8.8,12.3
		c-4.1,3.8-8.1,5.6-11.8,5.6H215.7z M293.4,61.5c0.3,0,0.8-0.3,1.6-1c1.1-1,2-2.3,2.7-3.8l13.5-30.3c0.7-1.5,0.9-2.7,0.7-3.8
		c-0.1-0.7-0.4-1-0.7-1h-58.7c-0.3,0-0.8,0.3-1.5,1c-1.1,1-2,2.3-2.7,3.8l-13.5,30.3c-0.7,1.5-0.9,2.7-0.7,3.8c0.1,0.7,0.4,1,0.7,1
		H293.4z"/>
        <path class="st1" d="M361.3,35.2l-9.5,21.5c-0.7,1.5-0.7,2.7-0.2,3.8c0.4,0.7,0.8,1,1.2,1h65.9l-9.2,20.7h-77c-3.8,0-6-1.9-6.8-5.6
		c-0.7-3.4,0-7.5,2.1-12.3l12.9-29L361.3,35.2L361.3,35.2z M336.4,44.8L355.9,1h20.6L357,44.8H336.4z"/>
        <path class="st1" d="M422,82.1l36.1-81.2h20.6l-36.1,81.2H422z"/>
        <path class="st1" d="M491.6,82.1l26.9-60.5h-36.7L491,0.9h94.1l-9.2,20.7h-36.7l-26.9,60.5H491.6L491.6,82.1z"/>
    </g>
    <g>
        <path class="st2" d="M58.8,78.4c-21.3,1.2-38.1-12.6-40.6-32.9C16.8,34,20.5,24,28.5,15.7c7.9-8.2,17.9-11.5,30-11.4
		C44.8-2.6,23-0.7,10,15.2C-2.7,30.7-2.5,53,10.5,68.3C22.1,82,44,86.8,58.8,78.4z"/>
        <path class="st2" d="M73.1,19.2c-10.6-10-29-8.6-39.2,2.7c-11.2,12.3-10,30.9,2.8,41.9c10.4,9,28.6,9,36.1,0
		c-10.4,2.2-19.1-0.6-25.2-9.3c-5.4-7.6-5.9-15.9-1.2-24C52,20.2,61.3,16.9,73.1,19.2z"/>
        <path class="st2" d="M66.4,56.1c8.4,0,14.7-6.4,14.7-14.7c0-8.5-6.5-14.7-15.2-14.6c-8,0-14.2,6.5-14.2,14.7
		C51.6,49.8,58,56.2,66.4,56.1z"/>
        <path class="st2" d="M58.8,78.4c-14.9,8.4-36.7,3.7-48.4-10c-13-15.2-13.2-37.5-0.5-53.1c13-16,34.8-17.9,48.5-10.9
		c-12.1-0.1-22.1,3.2-30,11.4c-8,8.3-11.7,18.3-10.3,29.8C20.8,65.8,37.5,79.5,58.8,78.4z"/>
        <path class="st2" d="M73.1,19.2c-11.8-2.3-21,1-26.9,11.3c-4.6,8.1-4.1,16.4,1.2,24c6.1,8.7,14.8,11.5,25.2,9.3
		c-7.5,9-25.7,8.9-36.1,0c-12.7-11-14-29.6-2.8-41.9C44.1,10.6,62.5,9.2,73.1,19.2z"/>
        <path class="st2" d="M66.4,56.1c-8.3,0-14.7-6.3-14.7-14.6c0-8.2,6.2-14.6,14.2-14.7c8.7-0.1,15.2,6.2,15.2,14.6
		C81.1,49.7,74.7,56.1,66.4,56.1z"/>
    </g>
</svg>
