<?xml version="1.0" encoding="utf-8"?>
<!-- Generator: Adobe Illustrator 27.0.0, SVG Export Plug-In . SVG Version: 6.00 Build 0)  -->
<svg version="1.1" id="Solit"
    xmlns="http://www.w3.org/2000/svg"
    xmlns:xlink="http://www.w3.org/1999/xlink" x="0px" y="0px" viewBox="0 0 584.5 108.8" style="enable-background:new 0 0 584.5 108.8;" xml:space="preserve">
    <style type="text/css">
	.st0{display:none;fill:#FFFFFF;}
	.st1{fill:#58595B;}
	.st2{fill:#A7275E;}
	.st3{fill:#231F20;}
	.st4{fill-rule:evenodd;clip-rule:evenodd;fill:#A7275E;}
    </style>
    <rect x="-132.2" y="-248.8" class="st0" width="840.9" height="593.4"/>
    <g>
        <g>
            <path class="st1" d="M291.5,107.6c0.7,0,1.4-0.1,2-0.2c0.6-0.1,1.1-0.3,1.6-0.5c0.5-0.2,0.9-0.4,1.2-0.6c0.3-0.2,0.6-0.4,0.8-0.6
			c0.2-0.2,0.4-0.3,0.6-0.4c0.1-0.1,0.3-0.2,0.3-0.2c0.1,0,0.2,0,0.2,0.1l0.5,0.6c-0.9,0.9-2,1.6-3.2,2.2c-1.2,0.5-2.6,0.8-4.3,0.8
			c-1.2,0-2.4-0.2-3.4-0.6c-1-0.4-1.9-1-2.6-1.8c-0.7-0.8-1.3-1.7-1.6-2.8c-0.4-1.1-0.6-2.3-0.6-3.6c0-1.8,0.3-3.4,0.9-4.9
			c0.6-1.5,1.4-2.8,2.4-3.8c1-1.1,2.2-1.9,3.5-2.5c1.4-0.6,2.8-0.9,4.4-0.9c0.7,0,1.4,0.1,2,0.2c0.6,0.1,1.1,0.3,1.6,0.5
			c0.5,0.2,0.9,0.5,1.4,0.8c0.4,0.3,0.8,0.7,1.2,1.1l-0.5,0.6c-0.1,0.1-0.2,0.2-0.4,0.2c-0.1,0-0.2-0.1-0.3-0.2
			c-0.1-0.1-0.3-0.2-0.4-0.4c-0.2-0.2-0.4-0.3-0.7-0.5c-0.3-0.2-0.6-0.3-0.9-0.5c-0.4-0.1-0.8-0.3-1.3-0.4c-0.5-0.1-1.1-0.1-1.7-0.1
			c-1.3,0-2.6,0.3-3.8,0.8c-1.2,0.5-2.2,1.2-3,2.1c-0.9,0.9-1.5,2.1-2,3.4c-0.5,1.3-0.7,2.8-0.7,4.5c0,1.2,0.2,2.3,0.5,3.2
			c0.3,1,0.8,1.8,1.4,2.5c0.6,0.7,1.3,1.2,2.2,1.5C289.5,107.4,290.5,107.6,291.5,107.6z"/>
            <path class="st1" d="M336.5,96.8c0,1.8-0.3,3.5-0.8,4.9c-0.6,1.5-1.3,2.7-2.3,3.8c-1,1.1-2.2,1.9-3.5,2.5
			c-1.3,0.6-2.8,0.9-4.4,0.9c-1.3,0-2.4-0.2-3.4-0.6c-1-0.4-1.9-1-2.6-1.8c-0.7-0.8-1.3-1.7-1.7-2.8c-0.4-1.1-0.6-2.3-0.6-3.6
			c0-1.8,0.3-3.4,0.8-4.9s1.3-2.8,2.3-3.8c1-1.1,2.1-1.9,3.5-2.5c1.3-0.6,2.8-0.9,4.3-0.9c1.3,0,2.4,0.2,3.4,0.6
			c1,0.4,1.9,1,2.6,1.8c0.7,0.8,1.3,1.7,1.7,2.8C336.3,94.2,336.5,95.4,336.5,96.8z M334.9,96.8c0-1.2-0.2-2.3-0.5-3.2
			c-0.3-1-0.8-1.8-1.4-2.4c-0.6-0.7-1.3-1.2-2.2-1.6c-0.9-0.4-1.8-0.5-2.8-0.5c-1.3,0-2.6,0.3-3.7,0.8c-1.1,0.5-2.1,1.2-2.9,2.2
			c-0.8,0.9-1.5,2.1-1.9,3.4c-0.5,1.3-0.7,2.8-0.7,4.5c0,1.2,0.2,2.3,0.5,3.2c0.3,1,0.8,1.8,1.4,2.4c0.6,0.7,1.3,1.2,2.2,1.5
			c0.8,0.4,1.8,0.5,2.8,0.5c1.3,0,2.6-0.3,3.7-0.8c1.1-0.5,2.1-1.2,2.9-2.2c0.8-0.9,1.5-2.1,1.9-3.4
			C334.7,100,334.9,98.5,334.9,96.8z"/>
            <path class="st1" d="M373.1,88.1l-2.7,20.5h-0.7c-0.1,0-0.2,0-0.3-0.1c-0.1,0-0.2-0.1-0.2-0.2l-10.5-17.9c0,0.1,0,0.2,0,0.3
			c0,0.1,0,0.2,0,0.3l-2.3,17.6h-1.3l2.7-20.5h0.7c0.1,0,0.2,0,0.3,0c0.1,0,0.1,0.1,0.2,0.2l10.5,17.9c0-0.1,0-0.3,0-0.4
			c0-0.1,0-0.2,0-0.3l2.3-17.4H373.1z"/>
            <path class="st1" d="M409.8,88.1l-2.7,20.5h-0.7c-0.1,0-0.2,0-0.3-0.1c-0.1,0-0.2-0.1-0.2-0.2l-10.5-17.9c0,0.1,0,0.2,0,0.3
			c0,0.1,0,0.2,0,0.3l-2.3,17.6h-1.3l2.7-20.5h0.7c0.1,0,0.2,0,0.3,0c0.1,0,0.1,0.1,0.2,0.2l10.5,17.9c0-0.1,0-0.3,0-0.4
			c0-0.1,0-0.2,0-0.3l2.3-17.4H409.8z"/>
            <path class="st1" d="M432.5,89.2l-1.1,8.4h8.7l-0.2,1.2h-8.6l-1.1,8.6h10.5l-0.2,1.2h-12l2.7-20.5h11.9l-0.2,1.2L432.5,89.2
			L432.5,89.2z"/>
            <path class="st1" d="M468.1,107.6c0.7,0,1.4-0.1,2-0.2c0.6-0.1,1.1-0.3,1.6-0.5c0.5-0.2,0.9-0.4,1.2-0.6c0.3-0.2,0.6-0.4,0.8-0.6
			c0.2-0.2,0.4-0.3,0.6-0.4c0.1-0.1,0.3-0.2,0.3-0.2c0.1,0,0.2,0,0.2,0.1l0.6,0.6c-0.9,0.9-2,1.6-3.2,2.2c-1.2,0.5-2.6,0.8-4.3,0.8
			c-1.2,0-2.4-0.2-3.4-0.6c-1-0.4-1.9-1-2.6-1.8c-0.7-0.8-1.3-1.7-1.6-2.8c-0.4-1.1-0.6-2.3-0.6-3.6c0-1.8,0.3-3.4,0.9-4.9
			c0.6-1.5,1.4-2.8,2.4-3.8c1-1.1,2.2-1.9,3.5-2.5c1.4-0.6,2.8-0.9,4.4-0.9c0.7,0,1.4,0.1,2,0.2c0.6,0.1,1.1,0.3,1.6,0.5
			c0.5,0.2,0.9,0.5,1.4,0.8c0.4,0.3,0.8,0.7,1.2,1.1l-0.5,0.6c-0.1,0.1-0.2,0.2-0.4,0.2c-0.1,0-0.2-0.1-0.3-0.2
			c-0.1-0.1-0.3-0.2-0.4-0.4c-0.2-0.2-0.4-0.3-0.7-0.5c-0.3-0.2-0.6-0.3-0.9-0.5c-0.4-0.1-0.8-0.3-1.3-0.4c-0.5-0.1-1.1-0.1-1.7-0.1
			c-1.3,0-2.6,0.3-3.8,0.8c-1.2,0.5-2.2,1.2-3,2.1c-0.9,0.9-1.5,2.1-2,3.4c-0.5,1.3-0.7,2.8-0.7,4.5c0,1.2,0.2,2.3,0.5,3.2
			c0.3,1,0.8,1.8,1.4,2.5c0.6,0.7,1.3,1.2,2.2,1.5C466.1,107.4,467.1,107.6,468.1,107.6z"/>
            <path class="st1" d="M509.6,89.3h-6.9l-2.5,19.3h-1.5l2.5-19.3h-7l0.2-1.2h15.5L509.6,89.3z"/>
        </g>
    </g>
    <g>
        <path class="st2" d="M97.6,81.6c-4.2,0-6.7-2-7.5-5.9c-0.7-3.3,0-7.3,2.1-12l3.5-7.9h22.1c-0.9,2-1.2,3.4-0.9,4.4
		c0.1,0.5,0.1,0.7,0,0.7h58.5c-0.1,0,0.1-0.2,0.6-0.7c1.2-1.1,2.2-2.5,2.9-4.1c0.7-1.6,1-3,0.8-4.1c-0.1-0.5-0.1-0.7,0-0.7h-68.6
		c-4.2,0-6.7-2-7.5-5.9c-0.7-3.3,0-7.3,2.1-12l6.7-15.1c2.1-4.6,4.9-8.6,8.6-12c4.3-4,8.6-5.9,12.8-5.9h78.7c4.2,0,6.7,2,7.5,5.9
		c0.7,3.4,0,7.3-2.1,12l-3.5,7.9h-22.1c0.9-2,1.2-3.4,0.9-4.4c-0.1-0.5-0.1-0.7,0-0.7h-58.5c0.1,0-0.1,0.2-0.6,0.7
		c-1.2,1.1-2.1,2.5-2.9,4.1c-0.7,1.6-1,3-0.8,4.1c0.1,0.5,0.1,0.7,0,0.7H199c4.2,0,6.7,2,7.5,5.9c0.7,3.3,0,7.3-2.1,12l-6.7,15.1
		c-2.1,4.7-4.9,8.6-8.6,12c-4.3,3.9-8.6,5.9-12.8,5.9L97.6,81.6L97.6,81.6z"/>
        <path class="st2" d="M215.1,81.6c-3.8,0-6.1-1.9-6.8-5.6c-0.7-3.4,0-7.5,2.1-12.3l20.2-45.4c2.1-4.8,5.1-8.9,8.8-12.3
		c4.1-3.8,8.1-5.6,11.8-5.6h78.7c3.8,0,6.1,1.9,6.8,5.6c0.7,3.4,0,7.5-2.1,12.3l-20.2,45.4c-2.1,4.8-5,8.9-8.8,12.3
		c-4.1,3.8-8.1,5.6-11.8,5.6H215.1z M292.9,60.9c0.3,0,0.8-0.3,1.6-1c1.1-1,2-2.3,2.7-3.8l13.5-30.3c0.7-1.5,0.9-2.7,0.7-3.8
		c-0.1-0.7-0.4-1-0.7-1h-58.7c-0.3,0-0.8,0.3-1.5,1c-1.1,1-2,2.3-2.7,3.8l-13.5,30.3c-0.7,1.5-0.9,2.7-0.7,3.8c0.1,0.7,0.4,1,0.7,1
		H292.9z"/>
        <path class="st2" d="M360.7,34.7l-9.5,21.5c-0.7,1.5-0.7,2.7-0.2,3.8c0.4,0.7,0.8,1,1.2,1h65.9l-9.2,20.7h-77c-3.8,0-6-1.9-6.8-5.6
		c-0.7-3.4,0-7.5,2.1-12.3l12.9-29L360.7,34.7L360.7,34.7z M335.8,44.2l19.5-43.8h20.6l-19.5,43.8H335.8z"/>
        <path class="st3" d="M421.4,81.6l36.1-81.2h20.6l-36.1,81.2H421.4z"/>
        <path class="st3" d="M491,81.6l26.9-60.5h-36.7l9.2-20.7h94.1l-9.2,20.7h-36.7l-26.9,60.5L491,81.6L491,81.6z"/>
    </g>
    <g>
        <path class="st4" d="M58.3,77.8C36.9,79,20.2,65.3,17.6,45c-1.4-11.5,2.3-21.5,10.3-29.8C35.8,7,45.8,3.7,57.9,3.8
		c-13.7-6.9-35.5-5-48.5,10.9C-3.3,30.3-3.1,52.6,9.9,67.8C21.5,81.5,43.4,86.3,58.3,77.8z"/>
        <path class="st4" d="M72.5,18.7c-10.6-10-29-8.6-39.2,2.7C22,33.6,23.3,52.2,36,63.2c10.4,9,28.6,9,36.1,0
		C61.6,65.4,53,62.7,46.8,54c-5.4-7.6-5.9-15.9-1.2-24C51.4,19.7,60.7,16.3,72.5,18.7z"/>
        <path class="st4" d="M65.8,55.6c8.4,0,14.7-6.4,14.7-14.7c0-8.5-6.5-14.7-15.2-14.6c-8,0-14.2,6.5-14.2,14.7
		C51,49.3,57.4,55.6,65.8,55.6z"/>
        <path class="st4" d="M58.3,77.8c-14.9,8.4-36.7,3.7-48.4-10c-13-15.2-13.2-37.5-0.5-53.1c13-16,34.8-17.9,48.5-10.9
		C45.8,3.7,35.8,7,27.9,15.2c-8,8.3-11.7,18.3-10.3,29.8C20.2,65.3,36.9,79,58.3,77.8z"/>
        <path class="st4" d="M72.5,18.7c-11.8-2.3-21,1-26.9,11.3C41,38,41.5,46.4,46.8,54c6.1,8.7,14.8,11.5,25.2,9.3
		c-7.5,9-25.7,8.9-36.1,0c-12.7-11-14-29.6-2.8-41.9C43.5,10.1,61.9,8.7,72.5,18.7z"/>
        <path class="st4" d="M65.8,55.6C57.4,55.6,51,49.3,51,41c0-8.2,6.2-14.6,14.2-14.7c8.7-0.1,15.2,6.2,15.2,14.6
		C80.5,49.2,74.1,55.6,65.8,55.6z"/>
    </g>
</svg>
