<?xml version="1.0" encoding="utf-8"?>
<!-- Generator: Adobe Illustrator 27.0.0, SVG Export Plug-In . SVG Version: 6.00 Build 0)  -->
<svg version="1.1" id="Solit"
    xmlns="http://www.w3.org/2000/svg"
    xmlns:xlink="http://www.w3.org/1999/xlink" x="0px" y="0px" viewBox="0 0 80.5 82.1" style="enable-background:new 0 0 80.5 82.1;" xml:space="preserve">
    <style type="text/css">
	.st0{display:none;fill:#FFFFFF;}
	.st1{fill-rule:evenodd;clip-rule:evenodd;fill:#A7275E;}
    </style>
    <rect x="-132.2" y="-248.7" class="st0" width="840.9" height="593.4"/>
    <g>
        <path class="st1" d="M58.3,77.9c-21.4,1.2-38.1-12.5-40.7-32.8c-1.4-11.5,2.3-21.5,10.3-29.8c7.9-8.2,17.9-11.5,30-11.4
		C44.2-3,22.4-1.1,9.4,14.8C-3.3,30.4-3.1,52.7,9.9,67.9C21.5,81.6,43.4,86.4,58.3,77.9z"/>
        <path class="st1" d="M72.5,18.8c-10.6-10-29-8.6-39.2,2.7C22,33.7,23.3,52.3,36,63.3c10.4,9,28.6,9,36.1,0
		c-10.5,2.2-19.1-0.5-25.3-9.2c-5.4-7.6-5.9-15.9-1.2-24C51.4,19.8,60.7,16.4,72.5,18.8z"/>
        <path class="st1" d="M65.8,55.7c8.4,0,14.7-6.4,14.7-14.7c0-8.5-6.5-14.7-15.2-14.6c-8,0-14.2,6.5-14.2,14.7
		C51,49.4,57.4,55.7,65.8,55.7z"/>
        <path class="st1" d="M58.3,77.9c-14.9,8.4-36.7,3.7-48.4-10c-13-15.2-13.2-37.5-0.5-53.1c13-16,34.8-17.9,48.5-10.9
		c-12.1-0.1-22.1,3.2-30,11.4c-8,8.3-11.7,18.3-10.3,29.8C20.2,65.4,36.9,79.1,58.3,77.9z"/>
        <path class="st1" d="M72.5,18.8c-11.8-2.3-21,1-26.9,11.3c-4.6,8-4.1,16.4,1.2,24c6.1,8.7,14.8,11.5,25.2,9.3
		c-7.5,9-25.7,8.9-36.1,0c-12.7-11-14-29.6-2.8-41.9C43.5,10.2,61.9,8.8,72.5,18.8z"/>
        <path class="st1" d="M65.8,55.7c-8.4,0-14.8-6.3-14.8-14.6c0-8.2,6.2-14.6,14.2-14.7c8.7-0.1,15.2,6.2,15.2,14.6
		C80.5,49.3,74.1,55.7,65.8,55.7z"/>
    </g>
</svg>
